<svg xmlns="http://www.w3.org/2000/svg" width="119" height="129" viewBox="0 0 119 129" fill="none">
    <path fill-rule="evenodd" clip-rule="evenodd" d="M74.4914 5.08258L103.643 21.9128C113.254 27.462 118.756 36.9911 118.756 48.0904V81.7508C118.756 92.8501 113.254 102.379 103.643 107.928L74.4914 124.759C64.8797 130.308 53.8765 130.308 44.2645 124.759L15.1133 107.928C5.50161 102.379 0 92.8501 0 81.7508V48.0904C0 36.9911 5.50161 27.462 15.1133 21.9128L44.2645 5.08258C53.8765 -0.466653 64.8797 -0.466653 74.4914 5.08258Z" fill="white"/>
    <path fill-rule="evenodd" clip-rule="evenodd" d="M51.6441 105.542L39.8549 98.7362L28.0652 91.9295C23.1465 89.0896 20.3312 84.2133 20.3312 78.5332V64.9206V51.308C20.3312 45.6282 23.1465 40.7516 28.0652 37.9117L39.8549 31.1054L51.6441 24.2987C56.5628 21.4589 62.1934 21.4589 67.1121 24.2987L78.901 31.1054V53.6487L98.4247 64.9206V78.5332C98.4247 84.2133 95.6094 89.0896 90.6907 91.9295L78.901 98.7362L67.1121 105.542C62.1934 108.382 56.5628 108.382 51.6441 105.542Z" fill="#0AF1A1"/>
    <path fill-rule="evenodd" clip-rule="evenodd" d="M22.3536 43.545L39.8549 53.6487V76.1924L59.3781 87.4643V107.672C56.7406 107.672 54.1035 106.963 51.6441 105.542L39.8549 98.7361L33.9902 95.3499L28.0477 91.9192C23.1393 89.0777 20.3312 84.2062 20.3312 78.5332V51.308C20.3312 48.4681 21.0355 45.8298 22.3536 43.545V43.545Z" fill="#1E9A84"/>
</svg>